<svg version="1.1" id="Layer_1" xmlns="http://www.w3.org/2000/svg" xmlns:xlink="http://www.w3.org/1999/xlink" x="0px" y="0px"
	 width="100%" viewBox="0 0 416 304" enable-background="new 0 0 416 304" xml:space="preserve">
<path fill="#000000" opacity="1.000000" stroke="none" 
	d="
M310.211609,241.820923 
	C311.378601,243.056259 312.314636,244.007416 313.174957,245.022797 
	C315.491943,247.757462 316.331696,250.643692 313.337006,253.387894 
	C310.442383,256.040405 307.821381,254.725098 305.473969,252.380463 
	C300.287659,247.200195 295.123657,241.997604 289.952423,236.802277 
	C285.956604,232.787888 281.860077,228.866806 278.009003,224.717957 
	C275.757721,222.292618 274.062408,222.203522 271.272461,224.195557 
	C243.225235,244.221100 205.123611,236.821808 186.391495,207.860229 
	C173.500626,187.929703 174.044708,160.666794 187.987930,141.562637 
	C190.220139,138.504196 190.230423,136.787491 187.464966,134.120728 
	C178.953766,125.913185 170.670624,117.464172 162.452316,108.960678 
	C159.783905,106.199669 155.940109,103.295891 159.600159,98.789902 
	C162.029068,95.799614 165.381058,96.762276 170.147202,101.508385 
	C178.174759,109.502228 186.350677,117.357620 194.115372,125.599869 
	C197.390457,129.076385 199.464188,129.146027 203.544205,126.398422 
	C234.730789,105.396477 281.142487,117.371147 293.530151,158.569916 
	C299.074860,177.010330 296.507935,194.871872 284.785706,210.771149 
	C283.060333,213.111343 283.189728,214.782547 285.235626,216.804947 
	C293.528229,225.002243 301.718262,233.303268 310.211609,241.820923 
M275.140778,204.955688 
	C282.383667,197.494049 285.112030,188.075455 285.544556,178.164856 
	C286.922668,146.586685 258.614258,121.990463 227.580765,127.618942 
	C220.023178,128.989639 213.012787,131.902908 207.389236,137.202271 
	C207.836517,139.395172 209.276138,140.373123 210.424530,141.525436 
	C224.047836,155.195084 237.637756,168.898819 251.358795,182.469910 
	C259.026062,190.053360 266.138977,198.211151 275.140778,204.955688 
z"/>
<path fill="#000000" opacity="1.000000" stroke="none" 
	d="
M233.801117,105.477982 
	C231.330551,103.436394 231.082962,100.953247 231.075043,98.432068 
	C231.050049,90.466972 231.066147,82.501678 231.091385,74.536552 
	C231.094528,73.545181 231.183105,72.543556 231.344177,71.565140 
	C231.872757,68.354507 233.144897,65.644318 236.962173,65.880226 
	C240.674606,66.109665 241.910995,68.899445 242.133057,72.105736 
	C242.338959,75.078789 242.197311,78.076477 242.194901,81.063301 
	C242.189957,87.203140 242.304016,93.346672 242.127289,99.481720 
	C241.968338,104.999634 239.655762,106.682587 233.801117,105.477982 
z"/>
<path fill="#000000" opacity="1.000000" stroke="none" 
	d="
M311.778870,170.269730 
	C320.991241,170.134781 329.775604,170.064346 338.560120,170.036789 
	C339.543365,170.033707 340.553528,170.172699 341.506226,170.419540 
	C344.579895,171.215897 346.581390,173.028473 346.202026,176.427628 
	C345.850983,179.572830 343.628662,181.086411 340.701752,181.122894 
	C331.087830,181.242722 321.471191,181.221222 311.856323,181.151489 
	C308.661926,181.128326 306.278961,179.466385 305.937561,176.239334 
	C305.549683,172.572968 308.075378,170.969452 311.778870,170.269730 
z"/>
<path fill="#000000" opacity="1.000000" stroke="none" 
	d="
M305.418945,99.183929 
	C308.554535,96.627869 311.632172,95.328186 314.406494,98.734352 
	C316.953644,101.861595 315.286469,104.572655 312.821655,107.013901 
	C306.565125,113.210556 300.361450,119.460556 294.132080,125.684654 
	C291.678864,128.135818 288.855530,129.706146 285.861877,126.932190 
	C282.680695,123.984459 284.018372,120.807030 286.548187,118.195457 
	C292.673889,111.871803 298.937225,105.681458 305.418945,99.183929 
z"/>
</svg>